<?xml version="1.0" encoding="utf-8"?>
<svg width="25" height="25" viewBox="0 0 25 25" fill="none" xmlns="http://www.w3.org/2000/svg">
<path d="M1.24976 13.4812H2.49979V22.06C2.49979 23.4118 3.62106 24.5111 4.99984 24.5111H20.0002C21.3789 24.5111 22.5002 23.4118 22.5002 22.06V13.4812H23.7502C23.9974 13.4812 24.2391 13.4093 24.4446 13.2746C24.6501 13.1399 24.8103 12.9485 24.9049 12.7246C24.9995 12.5007 25.0242 12.2544 24.976 12.0167C24.9278 11.779 24.8088 11.5606 24.634 11.3892L13.3838 0.359331C13.2678 0.245422 13.13 0.155053 12.9784 0.0933947C12.8267 0.0317368 12.6642 0 12.5 0C12.3358 0 12.1733 0.0317368 12.0216 0.0933947C11.87 0.155053 11.7322 0.245422 11.6162 0.359331L0.365991 11.3892C0.191226 11.5606 0.0722153 11.779 0.0240049 12.0167C-0.0242056 12.2544 0.0005487 12.5007 0.0951383 12.7246C0.189728 12.9485 0.349906 13.1399 0.555422 13.2746C0.760939 13.4093 1.00257 13.4812 1.24976 13.4812ZM9.99995 22.06V15.9323H15.0001V22.06H9.99995ZM12.5 2.95871L20.0002 10.312V15.9323L20.0014 22.06H17.5001V15.9323C17.5001 14.5805 16.3788 13.4812 15.0001 13.4812H9.99995C8.62117 13.4812 7.49989 14.5805 7.49989 15.9323V22.06H4.99984V10.312L12.5 2.95871Z" fill="#154F28"/>
</svg>
